<svg width="24" height="24" viewBox="0 0 24 24" fill="none" xmlns="http://www.w3.org/2000/svg">
<path d="M3.50043 20.4995C4.33043 21.3295 5.67043 21.3295 6.50043 20.4995L19.5004 7.49945C20.3304 6.66945 20.3304 5.32945 19.5004 4.49945C18.6704 3.66945 17.3304 3.66945 16.5004 4.49945L3.50043 17.4995C2.67043 18.3295 2.67043 19.6695 3.50043 20.4995Z" stroke="white" stroke-width="1.5" stroke-linecap="round" stroke-linejoin="round"/>
<path d="M18.0098 8.98999L15.0098 5.98999" stroke="white" stroke-width="1.5" stroke-linecap="round" stroke-linejoin="round"/>
<path d="M8.5 2.44L10 2L9.56 3.5L10 5L8.5 4.56L7 5L7.44 3.5L7 2L8.5 2.44Z" stroke="white" stroke-linecap="round" stroke-linejoin="round"/>
<path d="M4.5 8.44L6 8L5.56 9.5L6 11L4.5 10.56L3 11L3.44 9.5L3 8L4.5 8.44Z" stroke="white" stroke-linecap="round" stroke-linejoin="round"/>
<path d="M19.5 13.44L21 13L20.56 14.5L21 16L19.5 15.56L18 16L18.44 14.5L18 13L19.5 13.44Z" stroke="white" stroke-linecap="round" stroke-linejoin="round"/>
</svg>
